<svg width="32" height="32" viewBox="0 0 32 32" fill="none" xmlns="http://www.w3.org/2000/svg">
<path d="M16 2.66669C8.648 2.66669 2.66667 8.64802 2.66667 16C2.66667 23.352 8.648 29.3334 16 29.3334C23.352 29.3334 29.3333 23.352 29.3333 16C29.3333 8.64802 23.352 2.66669 16 2.66669ZM17.3333 22.5534V24H14.6667V22.56C11.548 22.0707 10.6667 19.8907 10.6667 18.6667H13.3333C13.348 18.8574 13.5453 20 16 20C17.84 20 18.6667 19.22 18.6667 18.6667C18.6667 18.2347 18.6667 17.3334 16 17.3334C11.36 17.3334 10.6667 14.8267 10.6667 13.3334C10.6667 11.616 12.0387 9.88802 14.6667 9.44669V8.01602H17.3333V9.49469C19.6453 10.0414 20.5333 11.9654 20.5333 13.3334H19.2L17.8667 13.3574C17.848 12.8507 17.58 12 16 12C14.268 12 13.3333 12.688 13.3333 13.3334C13.3333 13.832 13.3333 14.6667 16 14.6667C20.64 14.6667 21.3333 17.1734 21.3333 18.6667C21.3333 20.384 19.9613 22.112 17.3333 22.5534Z" fill="black"/>
</svg>
