<svg width="37" height="29" viewBox="0 0 37 29" fill="none" xmlns="http://www.w3.org/2000/svg">
<path d="M18.4999 7.75684L6.99995 17.2568V27.4443C6.99995 28.0068 7.43745 28.4443 7.99995 28.4443H14.9999C15.4999 28.4443 15.9374 28.0068 15.9374 27.4443V21.4443C15.9374 20.9443 16.4374 20.4443 16.9374 20.4443H20.9374C21.4999 20.4443 21.9374 20.9443 21.9374 21.4443V27.4443C21.9374 28.0068 22.4374 28.4443 22.9374 28.4443H29.9999C30.4999 28.4443 30.9999 28.0068 30.9999 27.4443V17.1943L19.4374 7.75684C19.3124 7.63184 19.1249 7.56934 18.9999 7.56934C18.8124 7.56934 18.6249 7.63184 18.4999 7.75684ZM36.6874 14.1943L31.4999 9.88184V1.25684C31.4999 0.819336 31.1249 0.506836 30.7499 0.506836H27.2499C26.8124 0.506836 26.4999 0.819336 26.4999 1.25684V5.75684L20.8749 1.13184C20.3749 0.756836 19.6874 0.506836 18.9999 0.506836C18.2499 0.506836 17.5624 0.756836 17.0624 1.13184L1.24995 14.1943C1.06245 14.3193 0.937447 14.5693 0.937447 14.7568C0.937447 14.9443 1.06245 15.1318 1.12495 15.2568L2.74995 17.1943C2.87495 17.3818 3.06245 17.4443 3.31245 17.4443C3.49995 17.4443 3.68745 17.3818 3.81245 17.2568L18.4999 5.19434C18.6249 5.06934 18.8124 5.00684 18.9999 5.00684C19.1249 5.00684 19.3124 5.06934 19.4374 5.19434L34.1249 17.2568C34.2499 17.3818 34.4374 17.4443 34.6249 17.4443C34.8749 17.4443 35.0624 17.3818 35.1874 17.1943L36.8124 15.2568C36.9374 15.1318 36.9999 14.9443 36.9999 14.7568C36.9999 14.5693 36.8749 14.3193 36.6874 14.1943Z" fill="#0A1C78"/>
<path d="M18.4999 7.75684L6.99995 17.2568V27.4443C6.99995 28.0068 7.43745 28.4443 7.99995 28.4443H14.9999C15.4999 28.4443 15.9374 28.0068 15.9374 27.4443V21.4443C15.9374 20.9443 16.4374 20.4443 16.9374 20.4443H20.9374C21.4999 20.4443 21.9374 20.9443 21.9374 21.4443V27.4443C21.9374 28.0068 22.4374 28.4443 22.9374 28.4443H29.9999C30.4999 28.4443 30.9999 28.0068 30.9999 27.4443V17.1943L19.4374 7.75684C19.3124 7.63184 19.1249 7.56934 18.9999 7.56934C18.8124 7.56934 18.6249 7.63184 18.4999 7.75684ZM36.6874 14.1943L31.4999 9.88184V1.25684C31.4999 0.819336 31.1249 0.506836 30.7499 0.506836H27.2499C26.8124 0.506836 26.4999 0.819336 26.4999 1.25684V5.75684L20.8749 1.13184C20.3749 0.756836 19.6874 0.506836 18.9999 0.506836C18.2499 0.506836 17.5624 0.756836 17.0624 1.13184L1.24995 14.1943C1.06245 14.3193 0.937447 14.5693 0.937447 14.7568C0.937447 14.9443 1.06245 15.1318 1.12495 15.2568L2.74995 17.1943C2.87495 17.3818 3.06245 17.4443 3.31245 17.4443C3.49995 17.4443 3.68745 17.3818 3.81245 17.2568L18.4999 5.19434C18.6249 5.06934 18.8124 5.00684 18.9999 5.00684C19.1249 5.00684 19.3124 5.06934 19.4374 5.19434L34.1249 17.2568C34.2499 17.3818 34.4374 17.4443 34.6249 17.4443C34.8749 17.4443 35.0624 17.3818 35.1874 17.1943L36.8124 15.2568C36.9374 15.1318 36.9999 14.9443 36.9999 14.7568C36.9999 14.5693 36.8749 14.3193 36.6874 14.1943Z" fill="url(#paint0_linear)"/>
<defs>
<linearGradient id="paint0_linear" x1="18.9999" y1="-4.55566" x2="18.9999" y2="30.9999" gradientUnits="userSpaceOnUse">
<stop offset="0.171875" stop-color="#2B0AF8"/>
<stop offset="0.802083" stop-color="#0B0149" stop-opacity="0"/>
</linearGradient>
</defs>
</svg>
