<svg width="33" height="33" viewBox="0 0 33 33" fill="none" xmlns="http://www.w3.org/2000/svg">
<path d="M31.8124 2.00684L25.3124 0.506836C24.6249 0.319336 23.8749 0.694336 23.5624 1.38184L20.5624 8.38184C20.3124 9.00684 20.4999 9.69434 20.9999 10.1318L24.8124 13.2568C22.5624 18.0068 18.6249 22.0068 13.7499 24.3193L10.6249 20.5068C10.1874 20.0068 9.49995 19.8193 8.87495 20.0693L1.87495 23.0693C1.18745 23.3818 0.874947 24.1318 0.999947 24.8193L2.49995 31.3193C2.68745 32.0068 3.24995 32.4443 3.99995 32.4443C19.9999 32.4443 32.9999 19.5068 32.9999 3.44434C32.9999 2.75684 32.4999 2.19434 31.8124 2.00684Z" fill="#0A1C78"/>
<path d="M31.8124 2.00684L25.3124 0.506836C24.6249 0.319336 23.8749 0.694336 23.5624 1.38184L20.5624 8.38184C20.3124 9.00684 20.4999 9.69434 20.9999 10.1318L24.8124 13.2568C22.5624 18.0068 18.6249 22.0068 13.7499 24.3193L10.6249 20.5068C10.1874 20.0068 9.49995 19.8193 8.87495 20.0693L1.87495 23.0693C1.18745 23.3818 0.874947 24.1318 0.999947 24.8193L2.49995 31.3193C2.68745 32.0068 3.24995 32.4443 3.99995 32.4443C19.9999 32.4443 32.9999 19.5068 32.9999 3.44434C32.9999 2.75684 32.4999 2.19434 31.8124 2.00684Z" fill="url(#paint0_linear)"/>
<defs>
<linearGradient id="paint0_linear" x1="16.9999" y1="-2.55566" x2="16.9999" y2="32.9999" gradientUnits="userSpaceOnUse">
<stop offset="0.171875" stop-color="#2B0AF8"/>
<stop offset="0.802083" stop-color="#0B0149" stop-opacity="0"/>
</linearGradient>
</defs>
</svg>
