<svg width="36" height="28" viewBox="0 0 36 28" fill="none" xmlns="http://www.w3.org/2000/svg">
<path d="M35.0833 9.59711C33.4861 10.8471 31.4722 12.3749 24.3889 17.5138C23 18.5554 20.4306 20.8471 18 20.8471C15.5 20.8471 13 18.5554 11.5417 17.5138C4.45834 12.3749 2.44445 10.8471 0.847229 9.59711C0.569451 9.38878 0.222229 9.59711 0.222229 9.94434V24.111C0.222229 25.986 1.68056 27.4443 3.55556 27.4443H32.4444C34.25 27.4443 35.7778 25.986 35.7778 24.111V9.94434C35.7778 9.59711 35.3611 9.38878 35.0833 9.59711ZM18 18.5554C19.5972 18.6249 21.8889 16.5416 23.0694 15.7082C32.3056 9.04156 33 8.41656 35.0833 6.74989C35.5 6.47211 35.7778 5.986 35.7778 5.43045V4.111C35.7778 2.30545 34.25 0.777671 32.4444 0.777671H3.55556C1.68056 0.777671 0.222229 2.30545 0.222229 4.111V5.43045C0.222229 5.986 0.430562 6.47211 0.847229 6.74989C2.93056 8.41656 3.62501 9.04156 12.8611 15.7082C14.0417 16.5416 16.3333 18.6249 18 18.5554Z" fill="#0A1C78"/>
<path d="M35.0833 9.59711C33.4861 10.8471 31.4722 12.3749 24.3889 17.5138C23 18.5554 20.4306 20.8471 18 20.8471C15.5 20.8471 13 18.5554 11.5417 17.5138C4.45834 12.3749 2.44445 10.8471 0.847229 9.59711C0.569451 9.38878 0.222229 9.59711 0.222229 9.94434V24.111C0.222229 25.986 1.68056 27.4443 3.55556 27.4443H32.4444C34.25 27.4443 35.7778 25.986 35.7778 24.111V9.94434C35.7778 9.59711 35.3611 9.38878 35.0833 9.59711ZM18 18.5554C19.5972 18.6249 21.8889 16.5416 23.0694 15.7082C32.3056 9.04156 33 8.41656 35.0833 6.74989C35.5 6.47211 35.7778 5.986 35.7778 5.43045V4.111C35.7778 2.30545 34.25 0.777671 32.4444 0.777671H3.55556C1.68056 0.777671 0.222229 2.30545 0.222229 4.111V5.43045C0.222229 5.986 0.430562 6.47211 0.847229 6.74989C2.93056 8.41656 3.62501 9.04156 12.8611 15.7082C14.0417 16.5416 16.3333 18.6249 18 18.5554Z" fill="url(#paint0_linear)"/>
<defs>
<linearGradient id="paint0_linear" x1="18" y1="-6.55566" x2="18" y2="28.9999" gradientUnits="userSpaceOnUse">
<stop offset="0.171875" stop-color="#2B0AF8"/>
<stop offset="0.802083" stop-color="#0B0149" stop-opacity="0"/>
</linearGradient>
</defs>
</svg>
