<svg width="40" height="32" viewBox="0 0 40 32" fill="none" xmlns="http://www.w3.org/2000/svg">
<path d="M16 21H15.9375C15.9375 20 16.0625 20.5 10.625 9.6875C9.5625 7.5 6.375 7.5 5.3125 9.6875C-0.1875 20.5625 0 20.0625 0 21C0 23.8125 3.5625 26 8 26C12.375 26 16 23.8125 16 21ZM8 11L12.5 20H3.5L8 11ZM39.9375 21C39.9375 20 40.0625 20.5 34.625 9.6875C33.5625 7.5 30.375 7.5 29.3125 9.6875C23.8125 20.5625 24 20.0625 24 21C24 23.8125 27.5625 26 32 26C36.375 26 40 23.8125 40 21H39.9375ZM27.5 20L32 11L36.5 20H27.5ZM33 28H22V9.625C23.4375 8.9375 24.5625 7.625 24.875 6H33C33.5 6 34 5.5625 34 5V3C34 2.5 33.5 2 33 2H23.9375C23.0625 0.8125 21.625 0 20 0C18.3125 0 16.875 0.8125 16 2H7C6.4375 2 6 2.5 6 3V5C6 5.5625 6.4375 6 7 6H15.0625C15.375 7.625 16.5 8.9375 18 9.625V28H7C6.4375 28 6 28.5 6 29V31C6 31.5625 6.4375 32 7 32H33C33.5 32 34 31.5625 34 31V29C34 28.5 33.5 28 33 28Z" fill="black"/>
</svg>
