<svg width="63" height="63" viewBox="0 0 63 63" fill="none" xmlns="http://www.w3.org/2000/svg">
<rect width="63" height="63" fill="white"/>
<path d="M49.875 18.375H47.25V5.25003H15.75V18.375H13.125C8.78325 18.375 5.25 21.9083 5.25 26.25V44.625C5.25 47.5204 7.60463 49.875 10.5 49.875H15.75V57.75H47.25V49.875H52.5C55.3954 49.875 57.75 47.5204 57.75 44.625V26.25C57.75 21.9083 54.2168 18.375 49.875 18.375ZM21 10.5H42V18.375H21V10.5ZM42 52.5H21V42H42V52.5ZM52.5 44.625H47.25V42V36.75H15.75V42V44.625H10.5V26.25C10.5 24.8037 11.6786 23.625 13.125 23.625H49.875C51.324 23.625 52.5 24.8037 52.5 26.25V44.625Z" fill="#0A1C78"/>
<path d="M49.875 18.375H47.25V5.25003H15.75V18.375H13.125C8.78325 18.375 5.25 21.9083 5.25 26.25V44.625C5.25 47.5204 7.60463 49.875 10.5 49.875H15.75V57.75H47.25V49.875H52.5C55.3954 49.875 57.75 47.5204 57.75 44.625V26.25C57.75 21.9083 54.2168 18.375 49.875 18.375ZM21 10.5H42V18.375H21V10.5ZM42 52.5H21V42H42V52.5ZM52.5 44.625H47.25V42V36.75H15.75V42V44.625H10.5V26.25C10.5 24.8037 11.6786 23.625 13.125 23.625H49.875C51.324 23.625 52.5 24.8037 52.5 26.25V44.625Z" fill="url(#paint0_linear)"/>
<path d="M36.75 26.25H47.25V31.5H36.75V26.25Z" fill="#0A1C78"/>
<path d="M36.75 26.25H47.25V31.5H36.75V26.25Z" fill="url(#paint1_linear)"/>
<defs>
<linearGradient id="paint0_linear" x1="31.5" y1="5.25003" x2="31.5" y2="57.75" gradientUnits="userSpaceOnUse">
<stop offset="0.171875" stop-color="#2B0AF8"/>
<stop offset="0.802083" stop-color="#0B0149" stop-opacity="0"/>
</linearGradient>
<linearGradient id="paint1_linear" x1="42" y1="26.25" x2="42" y2="31.5" gradientUnits="userSpaceOnUse">
<stop offset="0.171875" stop-color="#2B0AF8"/>
<stop offset="0.802083" stop-color="#0B0149" stop-opacity="0"/>
</linearGradient>
</defs>
</svg>
